<svg version="1.0" xmlns="http://www.w3.org/2000/svg"
 width="1024.000000pt" height="1024.000000pt" viewBox="0 0 1024.000000 1024.000000"
 preserveAspectRatio="xMidYMid meet">

<g transform="translate(0.000000,1024.000000) scale(0.100000,-0.100000)"
fill="#000000" stroke="none">
<path d="M7003 7980 c-35 -14 -55 -53 -44 -82 5 -14 17 -28 25 -31 24 -9 19
-41 -13 -92 -55 -87 -50 -156 16 -247 38 -53 38 -74 -2 -118 -53 -58 -62 -132
-25 -202 17 -33 20 -50 14 -99 l-7 -59 33 -13 c43 -19 75 -11 105 25 33 39 33
93 0 158 -14 27 -25 56 -25 65 0 8 16 35 35 60 61 80 59 148 -5 238 -47 65
-49 82 -15 128 44 59 58 100 51 146 -8 62 -30 98 -70 117 -38 18 -42 18 -73 6z"/>
<path d="M7330 7970 c-11 -11 -20 -31 -20 -43 0 -13 9 -32 20 -42 26 -23 25
-33 -5 -77 -57 -84 -53 -184 11 -273 19 -27 34 -58 34 -71 0 -12 -17 -46 -37
-75 -32 -46 -38 -64 -41 -119 -3 -45 1 -78 12 -104 9 -21 16 -51 16 -67 0 -90
134 -93 156 -3 5 19 -2 43 -26 90 -35 69 -34 91 5 134 37 41 55 86 55 139 0
63 -9 86 -54 140 -46 55 -47 92 -5 150 73 99 33 241 -67 241 -21 0 -42 -8 -54
-20z"/>
<path d="M4990 7820 c-301 -57 -567 -221 -729 -450 -55 -78 -129 -218 -150
-282 l-13 -38 -224 0 -224 0 0 29 c0 51 -66 165 -130 224 -82 76 -147 100
-260 95 -69 -2 -96 -8 -144 -32 -103 -51 -181 -146 -209 -256 l-14 -55 -211
-5 c-199 -5 -213 -6 -233 -26 -13 -13 -23 -39 -26 -65 -6 -56 23 -99 68 -99
l29 0 0 -479 0 -479 -27 -7 c-105 -25 -253 -153 -315 -270 -75 -144 -70 -74
-69 -1095 2 -756 5 -926 17 -978 46 -203 217 -410 420 -508 40 -19 117 -47
171 -62 l98 -27 2355 0 2355 0 98 27 c130 36 230 85 321 159 94 75 155 150
210 261 80 157 77 115 74 1148 l-3 915 -24 63 c-27 73 -104 194 -152 238 -100
93 -227 149 -358 160 -58 5 -81 11 -81 20 0 8 -13 28 -29 46 -27 30 -34 32
-112 38 l-84 5 36 22 c19 12 64 53 100 90 l64 68 80 -3 c63 -3 90 1 126 16 63
27 115 76 147 136 23 44 27 63 26 136 0 91 -15 134 -69 198 -38 46 -119 82
-181 82 -42 0 -54 4 -59 18 -12 41 -35 42 -623 42 -629 0 -599 3 -628 -66 -17
-39 -18 -186 -4 -288 26 -180 122 -342 254 -430 l39 -26 -83 0 c-108 0 -140
-18 -164 -92 -5 -16 -23 -18 -190 -18 l-185 0 55 73 c207 275 284 650 199 977
-32 121 -90 253 -160 359 -245 371 -731 575 -1175 491z m320 -160 c129 -16
224 -45 345 -105 193 -96 335 -240 427 -431 69 -144 90 -231 95 -396 4 -103 1
-156 -11 -218 -40 -197 -126 -361 -260 -496 l-81 -82 -295 -6 c-162 -3 -426
-6 -587 -6 l-292 0 -79 60 c-164 124 -272 286 -328 496 -28 104 -26 347 4 467
117 472 570 777 1062 717z m-1967 -433 c66 -28 136 -112 137 -164 0 -10 -48
-13 -205 -13 -134 0 -205 4 -205 10 0 6 7 27 16 48 43 103 162 158 257 119z
m-461 -442 c-4 -72 -3 -75 26 -105 33 -32 56 -37 97 -18 38 17 55 58 55 133
l0 65 209 0 208 0 5 -76 c4 -65 9 -79 31 -102 37 -37 91 -36 123 2 21 23 24
38 24 102 l0 74 130 0 130 0 0 -467 0 -468 -610 0 -610 -1 0 468 0 468 93 0
92 0 -3 -75z m4471 -122 l137 -6 0 -77 c0 -213 -80 -349 -256 -437 -77 -38
-79 -38 -198 -38 -118 0 -123 1 -197 36 -178 85 -259 220 -259 430 l0 99 318
0 c176 0 380 -3 455 -7z m386 -58 c30 -15 61 -69 61 -104 0 -34 -26 -87 -51
-105 -13 -9 -41 -16 -62 -16 -39 0 -39 1 -33 31 3 17 6 71 6 120 0 89 0 89 25
89 15 0 39 -7 54 -15z m-3574 -405 c33 -66 94 -158 147 -221 21 -26 38 -50 38
-53 0 -3 -54 -6 -120 -6 l-120 0 1 203 c0 178 2 198 13 167 8 -20 26 -60 41
-90z m-1318 -719 c23 -11 49 -31 58 -44 23 -36 16 -86 -16 -109 -25 -19 -26
-19 -76 7 -38 20 -59 25 -81 20 -38 -8 -66 -38 -58 -63 7 -22 23 -31 133 -72
92 -35 144 -81 164 -148 40 -136 -80 -282 -232 -282 -72 0 -114 16 -167 65
-67 60 -76 126 -22 155 34 18 59 11 99 -30 34 -35 45 -40 84 -40 59 0 97 29
97 75 0 40 -9 48 -94 80 -94 36 -137 59 -168 92 -70 73 -64 175 15 251 63 61
182 80 264 43z m441 -14 c4 -7 9 -61 12 -122 l5 -110 128 -3 127 -3 0 95 c0
52 4 106 10 120 23 62 106 72 135 16 12 -24 15 -83 15 -324 0 -199 -4 -303
-11 -320 -26 -57 -116 -48 -138 14 -6 18 -11 84 -11 146 l0 114 -130 0 -130 0
0 -132 c0 -121 -2 -134 -22 -155 -27 -29 -80 -31 -108 -3 -19 19 -20 33 -20
338 0 291 2 320 18 334 9 9 26 18 37 20 24 5 72 -10 83 -25z m1040 18 c72 -22
160 -104 198 -187 25 -55 29 -75 29 -153 0 -82 -3 -97 -32 -156 -63 -127 -175
-201 -305 -200 -88 0 -124 10 -190 52 -121 78 -186 228 -158 366 26 125 109
232 214 272 63 25 172 27 244 6z m1755 -12 c15 -15 17 -44 17 -332 0 -343 -1
-352 -55 -365 -27 -7 -62 7 -82 33 -18 23 -18 631 0 653 31 40 82 44 120 11z
m349 4 c38 -23 53 -40 247 -286 l121 -154 0 206 c0 185 2 207 19 228 25 31 83
32 114 1 22 -22 22 -25 22 -337 0 -312 0 -315 -22 -337 -33 -33 -85 -30 -124
8 -17 16 -101 116 -187 223 l-157 193 -5 -206 c-6 -228 -8 -236 -70 -238 -25
-1 -40 6 -57 26 l-23 27 0 305 c0 197 4 312 11 325 10 19 40 37 64 38 6 1 26
-9 47 -22z m1171 7 c55 -19 129 -81 147 -124 10 -25 10 -34 -3 -54 -24 -36
-72 -43 -108 -17 -16 12 -43 31 -60 44 -24 17 -44 22 -94 22 -54 0 -69 -4
-106 -30 -128 -90 -112 -302 28 -374 12 -6 46 -11 75 -11 64 0 122 30 156 80
l23 35 -101 5 c-75 4 -103 9 -110 20 -15 23 -12 77 5 93 19 19 138 31 252 25
107 -6 117 -15 110 -103 -9 -118 -87 -228 -200 -281 -69 -32 -172 -33 -252 -3
-69 26 -157 105 -193 173 -25 47 -27 61 -27 161 1 91 4 118 22 157 40 86 126
162 213 189 45 13 174 10 223 -7z m-2548 -13 c83 -38 125 -111 125 -214 0 -80
-29 -141 -88 -181 -37 -26 -52 -30 -131 -34 l-89 -4 -4 -109 c-3 -95 -6 -111
-25 -130 -29 -29 -82 -28 -105 2 -16 19 -18 51 -18 335 0 387 -15 354 168 354
102 0 135 -4 167 -19z m613 0 c46 -24 97 -76 111 -114 17 -44 14 -163 -5 -200
-41 -81 -90 -109 -204 -117 l-85 -5 -5 -105 c-3 -58 -9 -112 -14 -122 -20 -43
-102 -43 -125 1 -7 13 -11 129 -11 324 0 385 -14 357 171 357 108 0 136 -3
167 -19z m-2064 -1032 c18 -14 77 -121 171 -308 l143 -286 97 200 c54 110 114
236 135 280 45 97 84 135 140 135 49 0 96 -37 110 -88 8 -25 10 -183 8 -477
-3 -404 -4 -442 -21 -466 -38 -56 -127 -63 -167 -12 -19 24 -20 39 -20 274 0
137 -3 249 -7 249 -5 0 -46 -72 -92 -161 -93 -176 -113 -199 -183 -199 -84 0
-114 34 -223 255 l-50 100 -5 -240 c-4 -169 -9 -247 -18 -262 -15 -27 -62 -53
-94 -53 -41 0 -86 36 -97 77 -7 24 -11 199 -11 476 0 471 0 475 52 511 33 23
100 20 132 -5z m1545 -8 c20 -21 50 -93 103 -248 42 -120 110 -317 152 -437
42 -122 76 -236 76 -257 0 -77 -82 -129 -148 -95 -38 19 -59 49 -73 99 l-10
37 -166 -2 -167 -3 -8 -34 c-13 -49 -35 -77 -75 -96 -73 -35 -143 8 -143 89 0
22 24 114 55 206 30 91 94 288 142 439 101 313 111 331 190 331 37 0 50 -5 72
-29z m750 15 c50 -26 51 -37 51 -461 l0 -395 120 0 c140 0 172 -11 190 -64 14
-44 5 -77 -31 -112 l-30 -29 -192 3 c-166 3 -195 5 -217 21 -50 36 -50 36 -50
526 0 421 2 462 18 481 36 45 90 56 141 30z m822 -15 l29 -29 0 -406 0 -406
133 0 c146 0 165 -6 187 -60 17 -42 -1 -104 -37 -128 -24 -15 -50 -17 -218
-14 -211 3 -224 7 -257 73 -16 31 -18 75 -18 483 l0 448 34 34 c46 46 104 48
147 5z m-3927 -365 c47 -20 76 -61 76 -108 0 -81 -53 -138 -131 -138 -139 0
-174 190 -45 246 40 17 59 17 100 0z m4884 0 c74 -38 98 -105 63 -174 -51 -99
-185 -96 -227 4 -18 43 -18 68 1 108 17 35 77 75 113 76 13 0 35 -6 50 -14z"/>
<path d="M4562 7090 c-97 -60 -97 -210 0 -270 69 -42 154 -17 206 60 30 44 27
121 -6 167 -43 61 -137 81 -200 43z"/>
<path d="M5615 7101 c-34 -14 -74 -62 -86 -101 -40 -133 110 -252 222 -177 49
32 83 105 74 157 -8 46 -43 93 -86 115 -30 16 -92 19 -124 6z"/>
<path d="M5128 6743 c-10 -2 -25 -26 -35 -54 -23 -64 -60 -99 -110 -106 -54
-7 -81 10 -105 65 -12 26 -26 50 -32 54 -21 14 -56 8 -77 -13 -48 -48 0 -147
93 -193 89 -44 198 -28 271 42 l27 26 38 -36 c45 -44 78 -58 140 -58 80 1 173
55 208 122 31 59 6 118 -50 118 -36 0 -56 -15 -56 -43 0 -10 -15 -34 -34 -53
-26 -26 -42 -34 -70 -34 -46 0 -101 47 -118 102 -11 38 -41 69 -63 67 -5 -1
-18 -3 -27 -6z"/>
<path d="M4168 5350 c-149 -46 -198 -239 -90 -353 39 -41 74 -57 127 -57 114
0 195 89 195 213 0 56 -4 71 -32 113 -47 69 -133 105 -200 84z"/>
<path d="M4870 5259 l0 -82 62 6 c48 4 67 11 80 27 26 32 23 76 -7 105 -20 21
-34 25 -80 25 l-55 0 0 -81z"/>
<path d="M5482 5263 l3 -78 58 1 c70 2 97 21 97 71 0 54 -36 83 -105 83 l-56
0 3 -77z"/>
<path d="M5059 4004 c-34 -87 -88 -258 -83 -265 5 -9 197 -13 206 -4 6 7 -87
274 -101 288 -7 7 -14 1 -22 -19z"/>
<path d="M6664 7816 c-28 -12 -43 -38 -44 -72 0 -6 11 -23 25 -38 34 -37 31
-72 -10 -135 -58 -91 -56 -175 7 -274 36 -56 38 -88 9 -127 -28 -38 -27 -75 4
-105 35 -36 71 -32 111 10 73 78 71 197 -6 305 -30 42 -25 82 18 147 34 52 37
62 37 127 -1 77 -19 126 -58 150 -36 23 -60 26 -93 12z"/>
</g>
</svg>
